<?xml version="1.0" standalone="no"?>
<!DOCTYPE svg PUBLIC "-//W3C//DTD SVG 20010904//EN"
 "http://www.w3.org/TR/2001/REC-SVG-20010904/DTD/svg10.dtd">
<svg version="1.0" xmlns="http://www.w3.org/2000/svg"
 width="1280.000000pt" height="292.000000pt" viewBox="0 0 1280.000000 292.000000"
 preserveAspectRatio="xMidYMid meet">

<g transform="translate(0.000000,292.000000) scale(0.100000,-0.100000)"
fill="#000000" stroke="none">
<path d="M7248 1955 c-172 -43 -268 -151 -268 -301 0 -59 5 -81 30 -131 49
-98 134 -147 311 -178 241 -43 280 -57 315 -110 25 -38 22 -105 -6 -145 -39
-54 -98 -74 -225 -74 -92 -1 -118 3 -156 20 -53 25 -125 86 -134 115 -9 28
-31 24 -112 -21 l-73 -41 24 -47 c47 -92 147 -165 271 -198 70 -19 272 -18
348 2 178 46 273 147 285 303 9 130 -46 234 -154 293 -58 31 -175 62 -295 77
-156 20 -229 62 -229 132 0 69 42 110 142 135 103 27 233 -4 305 -73 l38 -35
77 38 c43 21 78 43 78 49 0 21 -62 96 -104 124 -81 55 -149 74 -286 77 -86 2
-143 -1 -182 -11z"/>
<path d="M6160 1954 c-240 -44 -396 -191 -455 -429 -21 -83 -16 -227 11 -315
57 -192 199 -325 389 -365 135 -28 297 -13 408 38 65 30 160 116 203 184 79
122 110 294 80 443 -55 272 -245 434 -521 445 -49 2 -101 2 -115 -1z m242
-212 c143 -63 226 -240 198 -420 -21 -129 -85 -222 -188 -273 -41 -21 -61 -24
-162 -24 -132 0 -177 16 -251 87 -80 78 -123 230 -100 355 28 154 118 257 256
294 53 15 197 4 247 -19z"/>
<path d="M555 1928 c-3 -7 -4 -251 -3 -543 l3 -530 100 0 100 0 3 233 c1 127
6 232 10 231 4 0 62 -60 130 -132 68 -73 167 -178 220 -235 l98 -102 233 2
234 3 41 90 c23 50 45 96 49 103 6 9 75 12 288 12 l280 0 49 -105 49 -105 107
0 106 0 -6 25 c-3 13 -30 77 -60 142 -29 65 -104 231 -166 368 -62 138 -143
318 -181 400 l-68 150 -112 0 -112 0 -108 -240 c-60 -132 -123 -269 -139 -305
-17 -36 -75 -164 -129 -285 -54 -120 -103 -221 -109 -223 -9 -3 -504 508 -510
528 -3 9 99 123 324 360 93 98 144 156 144 164 0 3 -56 6 -124 6 l-124 0 -37
-42 c-21 -24 -75 -83 -120 -133 -45 -49 -120 -132 -166 -184 l-84 -95 -5 225
-5 224 -98 3 c-72 2 -99 -1 -102 -10z m1609 -459 l94 -214 -196 -3 c-107 -1
-196 -1 -198 1 -2 2 40 103 93 225 53 122 101 218 106 213 4 -4 50 -104 101
-222z"/>
<path d="M2517 1933 c-4 -3 -7 -46 -7 -94 l0 -89 173 -2 172 -3 3 -448 2 -448
98 3 97 3 3 447 2 448 173 2 172 3 0 90 0 90 -441 3 c-242 1 -444 -1 -447 -5z"/>
<path d="M3530 1395 l0 -545 405 0 406 0 -3 103 -3 102 -302 3 -303 2 0 120 0
120 295 0 295 0 0 95 0 95 -295 0 -295 0 0 125 0 125 305 0 305 0 0 100 0 100
-405 0 -405 0 0 -545z"/>
<path d="M4820 1395 l0 -546 98 3 97 3 3 233 c1 127 6 232 11 232 5 0 30 -24
56 -52 26 -29 126 -135 222 -235 l175 -183 124 0 c68 0 124 3 124 6 0 9 -58
72 -305 327 -115 121 -211 222 -213 227 -1 4 44 56 100 116 313 333 364 387
371 400 7 12 -13 14 -117 14 l-125 0 -35 -37 c-20 -21 -111 -122 -203 -225
-93 -103 -171 -187 -175 -187 -5 -1 -8 100 -8 224 l0 225 -100 0 -100 0 0
-545z"/>
<path d="M7960 1845 l0 -95 170 0 170 0 2 -447 3 -448 100 0 100 0 3 448 2
447 170 0 170 0 0 95 0 95 -445 0 -445 0 0 -95z"/>
<path d="M8986 1932 c-2 -4 90 -149 205 -320 l209 -313 0 -224 0 -225 100 0
100 0 0 223 0 223 219 315 c120 173 217 317 214 322 -2 4 -57 7 -122 7 l-119
0 -142 -220 c-78 -121 -145 -220 -149 -220 -4 0 -56 80 -116 178 -60 97 -122
196 -137 220 l-29 42 -114 0 c-63 0 -116 -4 -119 -8z"/>
<path d="M10136 1932 c-3 -3 -6 -161 -6 -352 0 -379 7 -437 63 -532 85 -146
271 -231 469 -214 210 18 352 134 403 331 12 48 15 128 15 411 l0 353 -42 6
c-24 4 -63 4 -88 1 -25 -2 -51 -5 -57 -5 -10 -1 -13 -74 -13 -331 0 -199 -4
-349 -11 -380 -15 -69 -64 -139 -118 -169 -61 -34 -181 -41 -248 -16 -63 24
-116 75 -144 138 -23 51 -24 60 -29 407 l-5 355 -92 2 c-50 0 -94 -2 -97 -5z"/>
<path d="M11285 1928 c-3 -7 -4 -251 -3 -543 l3 -530 100 0 100 0 3 233 c1
127 6 232 10 232 4 0 16 -10 26 -22 19 -24 115 -124 314 -331 l114 -117 117 0
c65 0 121 3 124 7 7 7 -1 16 -313 341 -107 112 -197 208 -198 213 -2 5 30 44
71 87 163 169 397 424 397 433 0 5 -53 9 -120 9 -113 0 -122 -1 -143 -23 -31
-32 -97 -105 -201 -222 -50 -55 -113 -124 -140 -153 l-51 -53 -5 223 -5 223
-98 3 c-72 2 -99 -1 -102 -10z"/>
</g>
</svg>
